<svg width="158" height="158" viewBox="0 0 158 158" fill="none" xmlns="http://www.w3.org/2000/svg">
<g filter="url(#filter0_d)">
<circle cx="79" cy="75" r="75" fill="#F2BC1B"/>
</g>
<mask id="path-2-inside-1" fill="white">
<path fill-rule="evenodd" clip-rule="evenodd" d="M41.5528 28.2024C41.5528 28.33 41.4929 28.5995 41.4197 28.8013C41.2978 29.1375 41.3073 29.1848 41.5325 29.3666L41.7783 29.5651L41.4504 29.7341C41.0299 29.951 41.0358 30.1452 41.4721 30.4456C41.6643 30.578 41.845 30.7052 41.8736 30.7281C41.9021 30.7512 41.9561 31.0685 41.9935 31.4333C42.0309 31.7981 42.1264 32.2518 42.2058 32.4415C42.4199 32.9531 42.1894 34.5878 41.7434 35.7208C41.4463 36.4754 41.3959 36.7398 41.3918 37.5669C41.3875 38.4488 41.357 38.5869 41.0387 39.1659C40.8471 39.5144 40.7129 39.822 40.7405 39.8496C40.7681 39.8771 40.9417 39.773 41.1262 39.6181C41.8007 39.0522 41.8412 39.3236 41.2032 40.1342C40.7219 40.7457 40.5847 40.8406 40.5847 40.5613C40.5847 40.2194 40.306 40.4932 39.9142 41.2198C39.6934 41.6294 39.459 42.1576 39.3932 42.3936C39.3276 42.6296 39.1998 42.9053 39.1093 43.0065C38.9615 43.1718 38.9624 43.2346 39.1193 43.6255C39.2153 43.8647 39.2939 44.3553 39.2939 44.7157V45.3709L40.1925 46.2956C41.4982 47.6393 42.7189 49.5951 43.1126 50.9744C43.3175 51.6926 43.276 52.7929 42.998 54.0112C42.7874 54.9345 42.7972 55.0644 43.1641 56.2065C43.4203 57.0043 43.4797 57.3647 43.4599 58.0044C43.4274 59.0547 43.6141 59.422 44.7384 60.5206C45.2213 60.9926 45.746 61.5788 45.9041 61.8232C46.0623 62.0678 46.4704 62.4907 46.8112 62.7631C47.6185 63.4089 47.904 63.8079 47.9906 64.4116C48.0537 64.8517 48.0978 64.9144 48.3996 64.9923C48.8162 65.0999 49.358 65.6962 49.4977 66.2009C49.5551 66.408 49.7043 66.7072 49.8294 66.8658C49.9817 67.0588 50.0211 67.1895 49.9486 67.2618C49.794 67.4159 49.4359 67.0625 49.1228 66.4468C48.9803 66.1665 48.8161 65.9373 48.7579 65.9373C48.6236 65.9373 48.6252 65.9834 48.7769 66.4883C48.8747 66.8136 48.8709 66.996 48.7594 67.3326C48.5998 67.815 48.6833 68.0126 48.9146 67.6993C49.0629 67.4984 49.0692 67.4982 49.1452 67.6935C49.1881 67.8041 49.4808 68.008 49.7955 68.1469C50.2125 68.3307 50.3864 68.4727 50.436 68.6699C50.5048 68.9434 50.5711 68.9779 50.9698 68.9477C51.1054 68.9374 51.3443 69.1026 51.5919 69.3776C51.9461 69.771 52.0338 69.8162 52.3297 69.7571C52.9707 69.6293 53.2051 69.1338 52.686 69.0038C52.4093 68.9346 52.3111 68.5895 52.5298 68.4547C52.5917 68.4165 52.6325 68.3051 52.6203 68.2071C52.608 68.1091 52.6369 67.8889 52.6846 67.7177C52.7415 67.5136 52.7244 67.3318 52.6352 67.1893C52.5205 67.0063 52.5283 66.9507 52.6844 66.837C52.9183 66.6664 53.3216 66.8046 53.7337 67.1967C54.0779 67.5241 54.2282 67.4532 54.044 67.0501C53.8473 66.6196 53.9658 66.6363 54.307 67.0875C54.8921 67.8609 55.1239 67.9244 55.5903 67.439C55.9676 67.0463 56.1819 67.0269 56.1819 67.3853C56.1819 67.681 56.2498 67.704 56.6616 67.5479C57.008 67.4165 58.0423 67.6124 57.9801 67.7976C57.9529 67.8788 57.5517 67.9296 56.8182 67.9446C54.393 67.9943 53.7538 68.0418 53.4389 68.1953C52.9926 68.413 52.9726 68.732 53.3905 68.9669C53.7184 69.1513 53.7223 69.1633 53.6476 69.7598L53.5717 70.3655L53.8549 70.2946C54.151 70.2204 54.2001 70.2859 54.0387 70.54C53.969 70.6497 54.036 70.7538 54.2824 70.9184C54.5397 71.0903 54.7167 71.3791 55.0117 72.1078C55.2258 72.637 55.3845 73.089 55.3641 73.112C55.2866 73.1996 53.5744 72.0923 53.3919 71.8367C53.1345 71.4758 53.0457 70.9786 53.2388 70.9786C53.4178 70.9786 53.4264 70.757 53.2612 70.3957C53.1029 70.0493 52.8222 69.9621 52.4457 70.1425C52.1634 70.2778 52.1479 70.3236 52.1442 71.0341C52.1419 71.446 52.1013 71.9311 52.0539 72.1121C51.9825 72.3848 52.0166 72.4991 52.2526 72.7788C52.6414 73.2396 52.744 73.6548 52.7479 74.7863C52.7522 76.0122 52.9127 76.3055 54.2703 77.5667C55.1702 78.4028 55.2991 78.487 55.5903 78.4294C56.6144 78.227 56.787 78.2409 57.0267 78.5448C57.5364 79.191 57.6002 80.503 57.1635 81.3566C56.8864 81.8981 56.7883 81.9637 56.5117 81.7914C56.1819 81.586 56.0131 81.8043 56.1652 82.2394C56.2521 82.4879 56.2503 82.6282 56.1585 82.7749C56.0634 82.9268 56.0667 83.096 56.1727 83.4922C56.2489 83.7773 56.3356 84.2521 56.3652 84.547C56.4314 85.2046 56.4996 85.2912 57.2468 85.668C57.7751 85.9345 57.8832 86.0495 58.2216 86.7053C58.5411 87.3247 58.6784 87.4795 59.0775 87.6705C59.6848 87.9611 59.8392 88.1793 59.8392 88.7469C59.8392 89.0981 59.9114 89.2879 60.1474 89.5577C60.3169 89.7515 60.5583 90.1119 60.6837 90.3586C60.8091 90.6053 61.1643 91.0156 61.473 91.2704C62.4033 92.0381 62.7319 92.4184 62.8532 92.8679C62.9546 93.2431 63.0385 93.3266 63.5322 93.5444C64.3204 93.892 65.0315 94.7904 64.5184 94.7904C64.4296 94.7904 64.357 94.718 64.357 94.6295C64.357 94.5411 64.3071 94.4687 64.2461 94.4687C63.8779 94.4687 64.0923 95.5083 64.5557 95.9703C64.7298 96.1441 65.0184 96.2844 65.2911 96.3278C65.8741 96.4208 66.1874 96.8004 66.1809 97.406C66.1735 98.105 66.0087 98.7829 65.8207 98.8878C65.5597 99.0335 65.613 99.2212 65.9731 99.4255C66.4419 99.6916 66.4789 99.8996 66.1229 100.27L65.8171 100.588L66.0218 100.967C66.191 101.281 66.2077 101.417 66.1176 101.754C65.9765 102.281 66.0848 102.553 66.5046 102.726C66.7381 102.823 66.9274 103.032 67.1143 103.4C67.38 103.922 67.3933 103.932 67.7806 103.865C69.2377 103.613 69.7768 103.592 70.6809 103.749C71.1893 103.838 71.7291 103.994 71.8805 104.096C72.0922 104.24 72.4698 104.296 73.5185 104.34C74.8622 104.396 74.8896 104.402 75.4547 104.779C75.7701 104.99 76.253 105.244 76.5279 105.344C76.9023 105.48 77.0575 105.605 77.1464 105.843C77.2116 106.017 77.321 106.309 77.3894 106.491C77.4826 106.739 77.6713 106.898 78.1433 107.126C78.4895 107.293 78.9214 107.554 79.1029 107.707C79.2844 107.859 79.5426 107.984 79.6767 107.984C79.8109 107.984 80.19 108.076 80.5193 108.189C81.1489 108.405 81.2645 108.396 82.369 108.043C82.7823 107.912 82.9792 107.899 83.2497 107.988C84.1259 108.277 84.6448 109.076 84.5389 109.975C84.4917 110.376 84.5137 110.566 84.617 110.651C84.696 110.717 84.7889 110.742 84.8232 110.708C84.8575 110.674 85.07 110.771 85.2954 110.924C85.7867 111.256 85.8705 111.266 85.8705 110.992C85.8705 110.836 85.9696 110.763 86.254 110.71C86.7751 110.613 86.9633 110.721 87.5618 111.462C87.9271 111.915 88.2851 112.211 88.8008 112.489C89.1997 112.704 89.7125 113.081 89.9406 113.328C90.197 113.605 90.45 113.776 90.6036 113.776C90.9122 113.776 91.8598 114.671 92.4388 115.51C92.6697 115.844 93.0089 116.225 93.1928 116.355C93.7872 116.777 94.1531 117.391 94.1531 117.966C94.1531 118.247 94.2535 118.711 94.3762 118.996C94.5441 119.386 94.582 119.63 94.5293 119.981C94.4557 120.472 94.621 121.06 94.8384 121.081C94.9052 121.088 95.064 121.085 95.1914 121.075C95.4911 121.051 95.7666 121.445 95.7666 121.898C95.7666 122.268 95.6789 122.333 95.4655 122.12C95.3651 122.02 95.3364 122.021 95.3364 122.124C95.3364 122.299 95.6322 123 95.7061 123C95.932 123 100.703 122.355 104.099 121.866C112.412 120.668 117.59 119.801 117.882 119.559C117.965 119.49 118.033 119.273 118.033 119.076C118.033 118.827 118.12 118.638 118.318 118.455L118.603 118.191L118.358 117.589C118.078 116.901 117.912 116.779 117.257 116.779C116.61 116.779 116.277 116.53 116.342 116.095C116.37 115.911 116.459 115.599 116.541 115.402C116.681 115.062 116.674 115.032 116.405 114.801C116.013 114.464 115.882 114.184 115.882 113.68C115.882 113.205 115.948 113.119 116.581 112.774C117.136 112.472 117.388 111.955 117.463 110.961C117.507 110.379 117.477 110.077 117.347 109.767C117.234 109.497 117.173 109.04 117.173 108.464C117.173 107.681 117.212 107.502 117.503 106.949C117.911 106.171 118.256 105.804 118.95 105.408C119.247 105.238 119.607 104.975 119.751 104.823C120.423 104.109 119.641 102.835 118.531 102.835C117.841 102.835 117.818 102.801 117.818 101.769C117.818 100.907 117.792 100.795 117.492 100.342C117.312 100.072 116.952 99.6899 116.692 99.4928C116.15 99.0823 115.896 98.6722 115.572 97.6865L115.343 96.9893L100.634 84.1518C92.5436 77.0911 82.7537 68.5458 78.8786 65.162L71.8329 59.0099L71.8584 51.1308C71.8725 46.7973 71.9276 40.1626 71.9809 36.387C72.0343 32.6114 72.0581 29.5012 72.0338 29.4752C72.0095 29.4494 67.8882 29.2711 62.8756 29.079C55.2561 28.787 44.5944 28.2448 42.1713 28.0261C41.5916 27.9738 41.5528 27.9849 41.5528 28.2024ZM67.4765 107.659C67.2607 107.798 67.4609 108.131 67.7895 108.179C68.1076 108.227 68.6464 107.883 68.4342 107.768C68.148 107.613 67.6374 107.555 67.4765 107.659ZM71.8867 107.799C71.8867 107.874 71.9677 108.051 72.0667 108.192C72.1656 108.333 72.1898 108.413 72.1205 108.37C71.8997 108.234 71.9847 108.473 72.2432 108.716C72.5316 108.986 73.041 109.021 73.3452 108.791C73.4749 108.693 73.8055 108.633 74.2187 108.631C74.884 108.627 75.2213 108.467 75.2213 108.155C75.2213 107.92 75.106 107.89 74.7598 108.035C74.525 108.133 74.3422 108.145 74.1528 108.073C73.7776 107.931 72.4664 107.662 72.1486 107.662C72.0046 107.662 71.8867 107.723 71.8867 107.799ZM69.7412 108.101C69.1614 108.214 68.8479 108.462 69.1586 108.562C69.2687 108.598 69.4418 108.772 69.5432 108.95C69.6446 109.129 69.8055 109.304 69.9009 109.341C70.0561 109.4 71.0345 109.035 71.2872 108.823C71.424 108.708 70.6553 107.98 70.413 107.995C70.3066 108.002 70.0043 108.049 69.7412 108.101ZM78.9862 113.615C78.9862 113.714 79.0871 113.776 79.2487 113.776C79.5972 113.776 79.6923 113.602 79.3883 113.521C79.0337 113.426 78.9862 113.437 78.9862 113.615ZM82.9914 113.797C83.0151 113.868 83.1856 113.966 83.3701 114.013C83.7115 114.102 84.1494 114.547 84.1494 114.805C84.1494 115.037 84.5054 115.159 84.9889 115.095C85.5267 115.023 85.5666 114.85 85.1431 114.428C84.6361 113.923 82.8591 113.402 82.9914 113.797ZM74.8986 116.084C74.8986 116.244 75.3003 116.457 75.6014 116.457C75.8294 116.457 75.6763 116.181 75.3717 116.043C75.012 115.879 74.8986 115.889 74.8986 116.084ZM83.0737 118.487C83.0737 118.6 83.188 118.83 83.3279 118.996C83.4677 119.163 83.6166 119.409 83.6588 119.544C83.7585 119.861 84.0923 120.066 84.6603 120.157C85.0397 120.218 85.1175 120.201 85.1175 120.057C85.1175 119.854 84.3728 119.087 83.7157 118.612C83.1811 118.226 83.0737 118.205 83.0737 118.487Z"/>
</mask>
<path fill-rule="evenodd" clip-rule="evenodd" d="M41.5528 28.2024C41.5528 28.33 41.4929 28.5995 41.4197 28.8013C41.2978 29.1375 41.3073 29.1848 41.5325 29.3666L41.7783 29.5651L41.4504 29.7341C41.0299 29.951 41.0358 30.1452 41.4721 30.4456C41.6643 30.578 41.845 30.7052 41.8736 30.7281C41.9021 30.7512 41.9561 31.0685 41.9935 31.4333C42.0309 31.7981 42.1264 32.2518 42.2058 32.4415C42.4199 32.9531 42.1894 34.5878 41.7434 35.7208C41.4463 36.4754 41.3959 36.7398 41.3918 37.5669C41.3875 38.4488 41.357 38.5869 41.0387 39.1659C40.8471 39.5144 40.7129 39.822 40.7405 39.8496C40.7681 39.8771 40.9417 39.773 41.1262 39.6181C41.8007 39.0522 41.8412 39.3236 41.2032 40.1342C40.7219 40.7457 40.5847 40.8406 40.5847 40.5613C40.5847 40.2194 40.306 40.4932 39.9142 41.2198C39.6934 41.6294 39.459 42.1576 39.3932 42.3936C39.3276 42.6296 39.1998 42.9053 39.1093 43.0065C38.9615 43.1718 38.9624 43.2346 39.1193 43.6255C39.2153 43.8647 39.2939 44.3553 39.2939 44.7157V45.3709L40.1925 46.2956C41.4982 47.6393 42.7189 49.5951 43.1126 50.9744C43.3175 51.6926 43.276 52.7929 42.998 54.0112C42.7874 54.9345 42.7972 55.0644 43.1641 56.2065C43.4203 57.0043 43.4797 57.3647 43.4599 58.0044C43.4274 59.0547 43.6141 59.422 44.7384 60.5206C45.2213 60.9926 45.746 61.5788 45.9041 61.8232C46.0623 62.0678 46.4704 62.4907 46.8112 62.7631C47.6185 63.4089 47.904 63.8079 47.9906 64.4116C48.0537 64.8517 48.0978 64.9144 48.3996 64.9923C48.8162 65.0999 49.358 65.6962 49.4977 66.2009C49.5551 66.408 49.7043 66.7072 49.8294 66.8658C49.9817 67.0588 50.0211 67.1895 49.9486 67.2618C49.794 67.4159 49.4359 67.0625 49.1228 66.4468C48.9803 66.1665 48.8161 65.9373 48.7579 65.9373C48.6236 65.9373 48.6252 65.9834 48.7769 66.4883C48.8747 66.8136 48.8709 66.996 48.7594 67.3326C48.5998 67.815 48.6833 68.0126 48.9146 67.6993C49.0629 67.4984 49.0692 67.4982 49.1452 67.6935C49.1881 67.8041 49.4808 68.008 49.7955 68.1469C50.2125 68.3307 50.3864 68.4727 50.436 68.6699C50.5048 68.9434 50.5711 68.9779 50.9698 68.9477C51.1054 68.9374 51.3443 69.1026 51.5919 69.3776C51.9461 69.771 52.0338 69.8162 52.3297 69.7571C52.9707 69.6293 53.2051 69.1338 52.686 69.0038C52.4093 68.9346 52.3111 68.5895 52.5298 68.4547C52.5917 68.4165 52.6325 68.3051 52.6203 68.2071C52.608 68.1091 52.6369 67.8889 52.6846 67.7177C52.7415 67.5136 52.7244 67.3318 52.6352 67.1893C52.5205 67.0063 52.5283 66.9507 52.6844 66.837C52.9183 66.6664 53.3216 66.8046 53.7337 67.1967C54.0779 67.5241 54.2282 67.4532 54.044 67.0501C53.8473 66.6196 53.9658 66.6363 54.307 67.0875C54.8921 67.8609 55.1239 67.9244 55.5903 67.439C55.9676 67.0463 56.1819 67.0269 56.1819 67.3853C56.1819 67.681 56.2498 67.704 56.6616 67.5479C57.008 67.4165 58.0423 67.6124 57.9801 67.7976C57.9529 67.8788 57.5517 67.9296 56.8182 67.9446C54.393 67.9943 53.7538 68.0418 53.4389 68.1953C52.9926 68.413 52.9726 68.732 53.3905 68.9669C53.7184 69.1513 53.7223 69.1633 53.6476 69.7598L53.5717 70.3655L53.8549 70.2946C54.151 70.2204 54.2001 70.2859 54.0387 70.54C53.969 70.6497 54.036 70.7538 54.2824 70.9184C54.5397 71.0903 54.7167 71.3791 55.0117 72.1078C55.2258 72.637 55.3845 73.089 55.3641 73.112C55.2866 73.1996 53.5744 72.0923 53.3919 71.8367C53.1345 71.4758 53.0457 70.9786 53.2388 70.9786C53.4178 70.9786 53.4264 70.757 53.2612 70.3957C53.1029 70.0493 52.8222 69.9621 52.4457 70.1425C52.1634 70.2778 52.1479 70.3236 52.1442 71.0341C52.1419 71.446 52.1013 71.9311 52.0539 72.1121C51.9825 72.3848 52.0166 72.4991 52.2526 72.7788C52.6414 73.2396 52.744 73.6548 52.7479 74.7863C52.7522 76.0122 52.9127 76.3055 54.2703 77.5667C55.1702 78.4028 55.2991 78.487 55.5903 78.4294C56.6144 78.227 56.787 78.2409 57.0267 78.5448C57.5364 79.191 57.6002 80.503 57.1635 81.3566C56.8864 81.8981 56.7883 81.9637 56.5117 81.7914C56.1819 81.586 56.0131 81.8043 56.1652 82.2394C56.2521 82.4879 56.2503 82.6282 56.1585 82.7749C56.0634 82.9268 56.0667 83.096 56.1727 83.4922C56.2489 83.7773 56.3356 84.2521 56.3652 84.547C56.4314 85.2046 56.4996 85.2912 57.2468 85.668C57.7751 85.9345 57.8832 86.0495 58.2216 86.7053C58.5411 87.3247 58.6784 87.4795 59.0775 87.6705C59.6848 87.9611 59.8392 88.1793 59.8392 88.7469C59.8392 89.0981 59.9114 89.2879 60.1474 89.5577C60.3169 89.7515 60.5583 90.1119 60.6837 90.3586C60.8091 90.6053 61.1643 91.0156 61.473 91.2704C62.4033 92.0381 62.7319 92.4184 62.8532 92.8679C62.9546 93.2431 63.0385 93.3266 63.5322 93.5444C64.3204 93.892 65.0315 94.7904 64.5184 94.7904C64.4296 94.7904 64.357 94.718 64.357 94.6295C64.357 94.5411 64.3071 94.4687 64.2461 94.4687C63.8779 94.4687 64.0923 95.5083 64.5557 95.9703C64.7298 96.1441 65.0184 96.2844 65.2911 96.3278C65.8741 96.4208 66.1874 96.8004 66.1809 97.406C66.1735 98.105 66.0087 98.7829 65.8207 98.8878C65.5597 99.0335 65.613 99.2212 65.9731 99.4255C66.4419 99.6916 66.4789 99.8996 66.1229 100.27L65.8171 100.588L66.0218 100.967C66.191 101.281 66.2077 101.417 66.1176 101.754C65.9765 102.281 66.0848 102.553 66.5046 102.726C66.7381 102.823 66.9274 103.032 67.1143 103.4C67.38 103.922 67.3933 103.932 67.7806 103.865C69.2377 103.613 69.7768 103.592 70.6809 103.749C71.1893 103.838 71.7291 103.994 71.8805 104.096C72.0922 104.24 72.4698 104.296 73.5185 104.34C74.8622 104.396 74.8896 104.402 75.4547 104.779C75.7701 104.99 76.253 105.244 76.5279 105.344C76.9023 105.48 77.0575 105.605 77.1464 105.843C77.2116 106.017 77.321 106.309 77.3894 106.491C77.4826 106.739 77.6713 106.898 78.1433 107.126C78.4895 107.293 78.9214 107.554 79.1029 107.707C79.2844 107.859 79.5426 107.984 79.6767 107.984C79.8109 107.984 80.19 108.076 80.5193 108.189C81.1489 108.405 81.2645 108.396 82.369 108.043C82.7823 107.912 82.9792 107.899 83.2497 107.988C84.1259 108.277 84.6448 109.076 84.5389 109.975C84.4917 110.376 84.5137 110.566 84.617 110.651C84.696 110.717 84.7889 110.742 84.8232 110.708C84.8575 110.674 85.07 110.771 85.2954 110.924C85.7867 111.256 85.8705 111.266 85.8705 110.992C85.8705 110.836 85.9696 110.763 86.254 110.71C86.7751 110.613 86.9633 110.721 87.5618 111.462C87.9271 111.915 88.2851 112.211 88.8008 112.489C89.1997 112.704 89.7125 113.081 89.9406 113.328C90.197 113.605 90.45 113.776 90.6036 113.776C90.9122 113.776 91.8598 114.671 92.4388 115.51C92.6697 115.844 93.0089 116.225 93.1928 116.355C93.7872 116.777 94.1531 117.391 94.1531 117.966C94.1531 118.247 94.2535 118.711 94.3762 118.996C94.5441 119.386 94.582 119.63 94.5293 119.981C94.4557 120.472 94.621 121.06 94.8384 121.081C94.9052 121.088 95.064 121.085 95.1914 121.075C95.4911 121.051 95.7666 121.445 95.7666 121.898C95.7666 122.268 95.6789 122.333 95.4655 122.12C95.3651 122.02 95.3364 122.021 95.3364 122.124C95.3364 122.299 95.6322 123 95.7061 123C95.932 123 100.703 122.355 104.099 121.866C112.412 120.668 117.59 119.801 117.882 119.559C117.965 119.49 118.033 119.273 118.033 119.076C118.033 118.827 118.12 118.638 118.318 118.455L118.603 118.191L118.358 117.589C118.078 116.901 117.912 116.779 117.257 116.779C116.61 116.779 116.277 116.53 116.342 116.095C116.37 115.911 116.459 115.599 116.541 115.402C116.681 115.062 116.674 115.032 116.405 114.801C116.013 114.464 115.882 114.184 115.882 113.68C115.882 113.205 115.948 113.119 116.581 112.774C117.136 112.472 117.388 111.955 117.463 110.961C117.507 110.379 117.477 110.077 117.347 109.767C117.234 109.497 117.173 109.04 117.173 108.464C117.173 107.681 117.212 107.502 117.503 106.949C117.911 106.171 118.256 105.804 118.95 105.408C119.247 105.238 119.607 104.975 119.751 104.823C120.423 104.109 119.641 102.835 118.531 102.835C117.841 102.835 117.818 102.801 117.818 101.769C117.818 100.907 117.792 100.795 117.492 100.342C117.312 100.072 116.952 99.6899 116.692 99.4928C116.15 99.0823 115.896 98.6722 115.572 97.6865L115.343 96.9893L100.634 84.1518C92.5436 77.0911 82.7537 68.5458 78.8786 65.162L71.8329 59.0099L71.8584 51.1308C71.8725 46.7973 71.9276 40.1626 71.9809 36.387C72.0343 32.6114 72.0581 29.5012 72.0338 29.4752C72.0095 29.4494 67.8882 29.2711 62.8756 29.079C55.2561 28.787 44.5944 28.2448 42.1713 28.0261C41.5916 27.9738 41.5528 27.9849 41.5528 28.2024ZM67.4765 107.659C67.2607 107.798 67.4609 108.131 67.7895 108.179C68.1076 108.227 68.6464 107.883 68.4342 107.768C68.148 107.613 67.6374 107.555 67.4765 107.659ZM71.8867 107.799C71.8867 107.874 71.9677 108.051 72.0667 108.192C72.1656 108.333 72.1898 108.413 72.1205 108.37C71.8997 108.234 71.9847 108.473 72.2432 108.716C72.5316 108.986 73.041 109.021 73.3452 108.791C73.4749 108.693 73.8055 108.633 74.2187 108.631C74.884 108.627 75.2213 108.467 75.2213 108.155C75.2213 107.92 75.106 107.89 74.7598 108.035C74.525 108.133 74.3422 108.145 74.1528 108.073C73.7776 107.931 72.4664 107.662 72.1486 107.662C72.0046 107.662 71.8867 107.723 71.8867 107.799ZM69.7412 108.101C69.1614 108.214 68.8479 108.462 69.1586 108.562C69.2687 108.598 69.4418 108.772 69.5432 108.95C69.6446 109.129 69.8055 109.304 69.9009 109.341C70.0561 109.4 71.0345 109.035 71.2872 108.823C71.424 108.708 70.6553 107.98 70.413 107.995C70.3066 108.002 70.0043 108.049 69.7412 108.101ZM78.9862 113.615C78.9862 113.714 79.0871 113.776 79.2487 113.776C79.5972 113.776 79.6923 113.602 79.3883 113.521C79.0337 113.426 78.9862 113.437 78.9862 113.615ZM82.9914 113.797C83.0151 113.868 83.1856 113.966 83.3701 114.013C83.7115 114.102 84.1494 114.547 84.1494 114.805C84.1494 115.037 84.5054 115.159 84.9889 115.095C85.5267 115.023 85.5666 114.85 85.1431 114.428C84.6361 113.923 82.8591 113.402 82.9914 113.797ZM74.8986 116.084C74.8986 116.244 75.3003 116.457 75.6014 116.457C75.8294 116.457 75.6763 116.181 75.3717 116.043C75.012 115.879 74.8986 115.889 74.8986 116.084ZM83.0737 118.487C83.0737 118.6 83.188 118.83 83.3279 118.996C83.4677 119.163 83.6166 119.409 83.6588 119.544C83.7585 119.861 84.0923 120.066 84.6603 120.157C85.0397 120.218 85.1175 120.201 85.1175 120.057C85.1175 119.854 84.3728 119.087 83.7157 118.612C83.1811 118.226 83.0737 118.205 83.0737 118.487Z" fill="#FFFEFA" stroke="#333333" stroke-width="2" mask="url(#path-2-inside-1)"/>
<path d="M90.4786 104.6C91.7352 104.6 92.7572 103.613 92.7572 102.4C92.7572 101.187 91.7352 100.2 90.4786 100.2C89.222 100.2 88.2 101.187 88.2 102.4C88.2 103.613 89.222 104.6 90.4786 104.6ZM90.4786 101.3C91.1069 101.3 91.6179 101.794 91.6179 102.4C91.6179 103.007 91.1069 103.5 90.4786 103.5C89.8503 103.5 89.3393 103.007 89.3393 102.4C89.3393 101.794 89.8503 101.3 90.4786 101.3Z" fill="#333333"/>
<path d="M90.1539 108.898C90.2486 108.964 90.3621 109 90.4786 109C90.595 109 90.7085 108.964 90.8033 108.898C90.9734 108.78 94.9733 105.942 94.9571 102.4C94.9571 99.974 92.9479 98 90.4786 98C88.0092 98 86 99.974 86 102.397C85.9838 105.942 89.9837 108.78 90.1539 108.898ZM90.4786 99.1C92.331 99.1 93.8375 100.58 93.8375 102.403C93.8492 104.844 91.381 107.035 90.4786 107.754C89.5767 107.035 87.1079 104.843 87.1197 102.4C87.1197 100.58 88.6261 99.1 90.4786 99.1Z" fill="#333333"/>
<defs>
<filter id="filter0_d" x="0" y="0" width="158" height="158" filterUnits="userSpaceOnUse" color-interpolation-filters="sRGB">
<feFlood flood-opacity="0" result="BackgroundImageFix"/>
<feColorMatrix in="SourceAlpha" type="matrix" values="0 0 0 0 0 0 0 0 0 0 0 0 0 0 0 0 0 0 127 0"/>
<feOffset dy="4"/>
<feGaussianBlur stdDeviation="2"/>
<feColorMatrix type="matrix" values="0 0 0 0 0 0 0 0 0 0 0 0 0 0 0 0 0 0 0.25 0"/>
<feBlend mode="normal" in2="BackgroundImageFix" result="effect1_dropShadow"/>
<feBlend mode="normal" in="SourceGraphic" in2="effect1_dropShadow" result="shape"/>
</filter>
</defs>
</svg>
